<svg viewBox="0 0 511.99992 511" xmlns="http://www.w3.org/2000/svg"><path d="m301.113281 151.050781c0 70.6875-48.722656 130-114.414062 146.183594-.09375.03125-.1875.050781-.28125.070313-22.015625 5.375-43.015625 14.300781-62.3125 26.1875l-28.382813 17.488281c-9.953125 6.136719-22.296875-3.0625-19.253906-14.363281l5.507812-20.511719c2.800782-10.453125-1.664062-21.417969-10.851562-27.136719-43.140625-26.84375-71.722656-74.910156-71.1171875-129.601562.9023435-82.65625 69.3203125-149.632813 151.9765625-148.859376 76.894531.710938 140.027344 59.082032 148.222656 133.972657.605469 5.4375.90625 10.964843.90625 16.570312zm0 0" fill="#e4e4ef"/><path d="m301.113281 151.050781c0 70.6875-48.722656 130-114.414062 146.183594-.59375-5.4375-.898438-10.96875-.898438-16.558594 0-70.699219 48.714844-130.011719 114.40625-146.195312.605469 5.4375.90625 10.964843.90625 16.570312zm0 0" fill="#cacadb"/><path d="m210.886719 293.21875c0-82.675781 66.636719-149.785156 149.128906-150.550781 82.65625-.769531 151.070313 66.207031 151.976563 148.859375.597656 54.695312-27.976563 102.757812-71.121094 129.601562-9.191406 5.71875-13.65625 16.6875-10.847656 27.140625l5.511718 20.515625c3.035156 11.296875-9.304687 20.496094-19.265625 14.359375l-28.378906-17.488281c-19.296875-11.886719-40.292969-20.8125-62.308594-26.191406-65.835937-16.085938-114.695312-75.457032-114.695312-146.246094zm0 0" fill="#589ce0"/><path d="m150.554688 107.589844c21.390624-35.175782 63.492187-20.484375 72.378906 7.742187 12.445312 39.519531-8.625 86.75-72.378906 115.328125-63.753907-28.578125-84.824219-75.808594-72.378907-115.328125 8.886719-28.226562 50.988281-42.917969 72.378907-7.742187zm0 0" fill="#f94141"/><path d="m435.214844 315.375c3.226562-3.222656 5.222656-7.679688 5.222656-12.601562 0-4.921876-1.996094-9.375-5.222656-12.601563-2.460938-2.460937-5.640625-4.207031-9.195313-4.890625h-8.851562c9.832031-.003906 17.804687-7.984375 17.804687-17.820312 0-4.917969-1.988281-9.375-5.21875-12.597657-3.226562-3.234375-7.683594-5.226562-12.601562-5.226562l-65.058594-.136719c9.414062-11.109375 16.371094-29.648438 20.269531-43.257812 3.097657-10.800782-3.152343-22.066407-13.960937-25.160157-10.804688-3.09375-22.070313 3.15625-25.15625 13.957031-.695313 2.410157-2.03125 5.0625-3.675782 7.71875-1.425781 2.308594-3.085937 4.621094-4.761718 6.773438-4.378906 5.628906-9.636719 10.507812-15.433594 14.675781-9.300781 6.675781-26.378906 22.320313-25.757812 46.816407v53.085937c0 43.523437 44.546874 68.105469 82.871093 68.105469h43.484375c4.914063 0 9.375-1.996094 12.601563-5.214844 3.222656-3.226562 5.21875-7.691406 5.21875-12.609375 0-9.84375-7.984375-17.816406-17.820313-17.816406l7.277344-.335938c4.921875 0 9.375-1.992187 12.601562-5.21875 3.226563-3.226562 5.222657-7.679687 5.222657-12.601562 0-4.914063-1.996094-9.378907-5.222657-12.605469-3.226562-3.214844-7.679687-5.214844-12.601562-5.214844h5.363281c4.921875 0 9.375-1.996094 12.601563-5.222656zm0 0" fill="#ffd0a6"/></svg>