<?xml version="1.0" encoding="UTF-8" standalone="no"?>
<svg
   xmlnsDc="http://purl.org/dc/elements/1.1/"
   xmlnsCc="http://creativecommons.org/ns#"
   xmlnsRdf="http://www.w3.org/1999/02/22-rdf-syntax-ns#"
   xmlnsSvg="http://www.w3.org/2000/svg"
   xmlns="http://www.w3.org/2000/svg"
   xmlSpace="preserve"
   style="enable-background:new 0 0 1080 2340;"
   viewBox="0 0 1080 2340"
   y="0"
   x="0"
   id="Layer_1"
   version="1.1"
   >
   <metadata
   id="metadata49">
   </metadata>
   <defs
   id="defs47" />
<style
   id="style2"
   type="text/css">
	
	.st0{opacity:5.000000e-02;fill:none;stroke:#FFFFFF;stroke-width:16;stroke-linecap:round;stroke-linejoin:round;stroke-miterlimit:10;}
	.st1{opacity:0.15;fill:none;stroke:#FFFFFF;stroke-width:16;stroke-linecap:round;stroke-linejoin:round;stroke-miterlimit:10;}
	.st2{opacity:0.2;fill:none;stroke:#FFFFFF;stroke-width:16;stroke-linecap:round;stroke-linejoin:round;stroke-miterlimit:10;}
	.st3{opacity:0.1;fill:none;stroke:#FFFFFF;stroke-width:16;stroke-linecap:round;stroke-linejoin:round;stroke-miterlimit:10;}
</style>
<line
   id="line4"
   y2="1085.3"
   x2="629.1"
   y1="2020"
   x1="-374.8"
   class="st0" />
<line
   id="line6"
   y2="1012.1"
   x2="1041.3"
   y1="1046.5"
   x1="1004.3"
   class="st1" />
<line
   id="line8"
   y2="1089.8"
   x2="957.8"
   y1="1883.1"
   x1="105.7"
   class="st1" />
<line
   id="line10"
   y2="1284.9"
   x2="1152.9"
   y1="2078.2"
   x1="300.8"
   class="st2" />
<line
   id="line12"
   y2="1486.5"
   x2="1152.9"
   y1="1607.6"
   x1="1022.8"
   class="st2" />
<line
   id="line14"
   y2="1958.9"
   x2="645.5"
   y1="2192.7"
   x1="394.3"
   class="st2" />
<line
   id="line16"
   y2="2226.8"
   x2="357.8"
   y1="2494.6"
   x1="70.1"
   class="st2" />
<line
   id="line18"
   y2="1701.3"
   x2="1152.9"
   y1="1839.6"
   x1="1004.3"
   class="st1" />
<line
   id="line20"
   y2="1883"
   x2="957.8"
   y1="2057.5"
   x1="770.3"
   class="st1" />
<line
   id="line22"
   y2="2163"
   x2="657.1"
   y1="2494.6"
   x1="300.8"
   class="st1" />
<line
   id="line24"
   y2="1813.2"
   x2="1264.7"
   y1="2086.9"
   x1="970.7"
   class="st3" />
<line
   id="line26"
   y2="2126.6"
   x2="928.1"
   y1="2137.4"
   x1="916.5"
   class="st3" />
<line
   id="line28"
   y2="2186.2"
   x2="864"
   y1="2606.5"
   x1="412.7"
   class="st3" />
<line
   id="line30"
   y2="1927.3"
   x2="1378.9"
   y1="2255"
   x1="1026.9"
   class="st0" />
<line
   id="line32"
   y2="2289.3"
   x2="990"
   y1="2720.6"
   x1="526.8"
   class="st0" />
<line
   id="line34"
   y2="1942.2"
   x2="42.3"
   y1="1946.7"
   x1="37.4"
   class="st1" />
<line
   id="line36"
   y2="531.1"
   x2="1381.2"
   y1="1190.9"
   x1="672.6"
   class="st3" />
<line
   id="line38"
   y2="1244.8"
   x2="614.7"
   y1="1465.8"
   x1="377.3"
   class="st3" />
<line
   id="line40"
   y2="1590.8"
   x2="614.7"
   y1="1811.8"
   x1="377.3"
   class="st2" />
<line
   id="line42"
   y2="1311.8"
   x2="910"
   y1="1532.8"
   x1="672.6"
   class="st2" />
</svg>