<?xml version="1.0" encoding="utf-8"?>
<!-- Generator: Adobe Illustrator 19.2.0, SVG Export Plug-In . SVG Version: 6.00 Build 0)  -->
<svg version="1.1" id="Layer_1" xmlns="http://www.w3.org/2000/svg" xmlns:xlink="http://www.w3.org/1999/xlink" x="0px" y="0px"
	 viewBox="0 0 500 500" style="enable-background:new 0 0 500 500;" xml:space="preserve">
<style type="text/css">
	.st0{clip-path:url(#SVGID_2_);fill:#FEA938;}
	.st1{clip-path:url(#SVGID_2_);fill:#FEA838;}
	.st2{clip-path:url(#SVGID_2_);fill:#FEA738;}
	.st3{clip-path:url(#SVGID_2_);fill:#FEA638;}
	.st4{clip-path:url(#SVGID_2_);fill:#FEA539;}
	.st5{clip-path:url(#SVGID_2_);fill:#FEA439;}
	.st6{clip-path:url(#SVGID_2_);fill:#FEA339;}
	.st7{clip-path:url(#SVGID_2_);fill:#FDA239;}
	.st8{clip-path:url(#SVGID_2_);fill:#FDA139;}
	.st9{clip-path:url(#SVGID_2_);fill:#FDA039;}
	.st10{clip-path:url(#SVGID_2_);fill:#FD9F39;}
	.st11{clip-path:url(#SVGID_2_);fill:#FD9E39;}
	.st12{clip-path:url(#SVGID_2_);fill:#FD9D3A;}
	.st13{clip-path:url(#SVGID_2_);fill:#FD9C3A;}
	.st14{clip-path:url(#SVGID_2_);fill:#FD9B3A;}
	.st15{clip-path:url(#SVGID_2_);fill:#FD9A3A;}
	.st16{clip-path:url(#SVGID_2_);fill:#FD993A;}
	.st17{clip-path:url(#SVGID_2_);fill:#FD983A;}
	.st18{clip-path:url(#SVGID_2_);fill:#FD973A;}
	.st19{clip-path:url(#SVGID_2_);fill:#FD963A;}
	.st20{clip-path:url(#SVGID_2_);fill:#FC953B;}
	.st21{clip-path:url(#SVGID_2_);fill:#FC943B;}
	.st22{clip-path:url(#SVGID_2_);fill:#FC933B;}
	.st23{clip-path:url(#SVGID_2_);fill:#FC923B;}
	.st24{clip-path:url(#SVGID_2_);fill:#FC913B;}
	.st25{clip-path:url(#SVGID_2_);fill:#FC903B;}
	.st26{clip-path:url(#SVGID_2_);fill:#FC8F3B;}
	.st27{clip-path:url(#SVGID_2_);fill:#FC8E3C;}
	.st28{clip-path:url(#SVGID_2_);fill:#FC8D3C;}
	.st29{clip-path:url(#SVGID_2_);fill:#FC8C3C;}
	.st30{clip-path:url(#SVGID_2_);fill:#FC8B3C;}
	.st31{clip-path:url(#SVGID_2_);fill:#FC8A3C;}
	.st32{clip-path:url(#SVGID_2_);fill:#FC893C;}
	.st33{clip-path:url(#SVGID_2_);fill:#FB883C;}
	.st34{clip-path:url(#SVGID_2_);fill:#FB873C;}
	.st35{clip-path:url(#SVGID_2_);fill:#FB863D;}
	.st36{clip-path:url(#SVGID_2_);fill:#FB853D;}
	.st37{clip-path:url(#SVGID_2_);fill:#FB843D;}
	.st38{clip-path:url(#SVGID_2_);fill:#FB833D;}
	.st39{clip-path:url(#SVGID_2_);fill:#FB823D;}
	.st40{clip-path:url(#SVGID_2_);fill:#FB813D;}
	.st41{clip-path:url(#SVGID_2_);fill:#FB803D;}
	.st42{clip-path:url(#SVGID_2_);fill:#FB7F3D;}
	.st43{clip-path:url(#SVGID_2_);fill:#FB7E3E;}
	.st44{clip-path:url(#SVGID_2_);fill:#FB7D3E;}
	.st45{clip-path:url(#SVGID_2_);fill:#FB7C3E;}
	.st46{clip-path:url(#SVGID_2_);fill:#FA7B3E;}
	.st47{clip-path:url(#SVGID_2_);fill:#FA7A3E;}
	.st48{clip-path:url(#SVGID_2_);fill:#FA793E;}
	.st49{clip-path:url(#SVGID_2_);fill:#FA783E;}
	.st50{clip-path:url(#SVGID_2_);fill:#FA773E;}
	.st51{clip-path:url(#SVGID_2_);fill:#FA763F;}
	.st52{clip-path:url(#SVGID_2_);fill:#FA753F;}
	.st53{clip-path:url(#SVGID_2_);fill:#FA743F;}
	.st54{clip-path:url(#SVGID_2_);fill:#FA733F;}
	.st55{clip-path:url(#SVGID_2_);fill:#FA723F;}
	.st56{clip-path:url(#SVGID_2_);fill:#FA713F;}
	.st57{clip-path:url(#SVGID_2_);fill:#FA703F;}
	.st58{clip-path:url(#SVGID_2_);fill:#FA6F40;}
	.st59{clip-path:url(#SVGID_2_);fill:#F96E40;}
	.st60{clip-path:url(#SVGID_2_);fill:#F96D40;}
	.st61{clip-path:url(#SVGID_2_);fill:#F96C40;}
	.st62{clip-path:url(#SVGID_2_);fill:#F96B40;}
	.st63{clip-path:url(#SVGID_2_);fill:#F96A40;}
	.st64{clip-path:url(#SVGID_2_);fill:#F96940;}
	.st65{clip-path:url(#SVGID_2_);fill:#F96840;}
	.st66{clip-path:url(#SVGID_2_);fill:#F96641;}
	.st67{clip-path:url(#SVGID_2_);fill:#F96541;}
	.st68{clip-path:url(#SVGID_2_);fill:#F96441;}
	.st69{clip-path:url(#SVGID_2_);fill:#F96341;}
	.st70{clip-path:url(#SVGID_2_);fill:#F96241;}
	.st71{clip-path:url(#SVGID_2_);fill:#F96141;}
	.st72{clip-path:url(#SVGID_2_);fill:#F96041;}
	.st73{clip-path:url(#SVGID_2_);fill:#F85F41;}
	.st74{clip-path:url(#SVGID_2_);fill:#F85E42;}
	.st75{clip-path:url(#SVGID_2_);fill:#F85D42;}
	.st76{clip-path:url(#SVGID_2_);fill:#F85C42;}
	.st77{clip-path:url(#SVGID_2_);fill:#F85B42;}
	.st78{clip-path:url(#SVGID_2_);fill:#F85A42;}
	.st79{clip-path:url(#SVGID_2_);fill:#F85942;}
	.st80{clip-path:url(#SVGID_2_);fill:#F85842;}
	.st81{clip-path:url(#SVGID_2_);fill:#F85743;}
	.st82{clip-path:url(#SVGID_2_);fill:#F85643;}
	.st83{clip-path:url(#SVGID_2_);fill:#F85543;}
	.st84{clip-path:url(#SVGID_2_);fill:#F85443;}
	.st85{clip-path:url(#SVGID_2_);fill:#F85343;}
	.st86{clip-path:url(#SVGID_2_);fill:#F75243;}
	.st87{clip-path:url(#SVGID_2_);fill:#F75143;}
	.st88{clip-path:url(#SVGID_2_);fill:#F75043;}
	.st89{clip-path:url(#SVGID_2_);fill:#F74F44;}
	.st90{clip-path:url(#SVGID_2_);fill:#F74E44;}
	.st91{clip-path:url(#SVGID_2_);fill:#F74D44;}
	.st92{clip-path:url(#SVGID_2_);fill:#F74C44;}
	.st93{clip-path:url(#SVGID_2_);fill:#F74B44;}
	.st94{clip-path:url(#SVGID_2_);fill:#F74A44;}
	.st95{clip-path:url(#SVGID_2_);fill:#F74944;}
	.st96{clip-path:url(#SVGID_2_);fill:#F74844;}
	.st97{clip-path:url(#SVGID_2_);fill:#F74745;}
	.st98{clip-path:url(#SVGID_2_);fill:#F74645;}
	.st99{clip-path:url(#SVGID_2_);fill:#F64545;}
	.st100{clip-path:url(#SVGID_2_);fill:#F64445;}
	.st101{clip-path:url(#SVGID_2_);fill:#F64345;}
	.st102{clip-path:url(#SVGID_2_);fill:#F64245;}
	.st103{clip-path:url(#SVGID_2_);fill:#F64145;}
	.st104{clip-path:url(#SVGID_2_);fill:#F64045;}
	.st105{clip-path:url(#SVGID_2_);fill:#F63F46;}
	.st106{clip-path:url(#SVGID_2_);fill:#F63E46;}
	.st107{clip-path:url(#SVGID_2_);fill:#F63D46;}
	.st108{clip-path:url(#SVGID_2_);fill:#F63C46;}
	.st109{clip-path:url(#SVGID_2_);fill:#F63B46;}
	.st110{clip-path:url(#SVGID_2_);fill:#F63A46;}
	.st111{clip-path:url(#SVGID_2_);fill:#F63946;}
	.st112{clip-path:url(#SVGID_2_);fill:#F53847;}
	.st113{clip-path:url(#SVGID_2_);fill:#F53747;}
	.st114{clip-path:url(#SVGID_2_);fill:#F53647;}
	.st115{clip-path:url(#SVGID_2_);fill:#F53547;}
	.st116{clip-path:url(#SVGID_2_);fill:#F53447;}
	.st117{clip-path:url(#SVGID_2_);fill:#F53347;}
	.st118{clip-path:url(#SVGID_2_);fill:#F53247;}
	.st119{clip-path:url(#SVGID_2_);fill:#F53147;}
	.st120{clip-path:url(#SVGID_2_);fill:#F53048;}
	.st121{clip-path:url(#SVGID_2_);fill:#F52F48;}
	.st122{clip-path:url(#SVGID_2_);fill:#F52E48;}
	.st123{clip-path:url(#SVGID_2_);fill:#F52D48;}
	.st124{clip-path:url(#SVGID_2_);fill:#F52C48;}
	.st125{clip-path:url(#SVGID_2_);fill:#F42B48;}
	.st126{clip-path:url(#SVGID_2_);fill:#F42A48;}
	.st127{clip-path:url(#SVGID_2_);fill:#F42948;}
	.st128{clip-path:url(#SVGID_2_);fill:#F42849;}
	.st129{clip-path:url(#SVGID_2_);fill:#F42749;}
	.st130{clip-path:url(#SVGID_2_);fill:#F42649;}
	.st131{clip-path:url(#SVGID_2_);fill:#F42549;}
	.st132{fill:none;}
	.st133{fill:#FFFFFF;}
</style>
<g>
	<g>
		<defs>
			<circle id="SVGID_1_" cx="251" cy="251" r="225"/>
		</defs>
		<clipPath id="SVGID_2_">
			<use xlink:href="#SVGID_1_"  style="overflow:visible;"/>
		</clipPath>
		<polygon class="st0" points="26,290.9 93.4,476 26,476 		"/>
		<polygon class="st0" points="26,280.9 97,476 93.4,476 26,290.9 		"/>
		<polygon class="st1" points="26,270.9 100.6,476 97,476 26,280.9 		"/>
		<polygon class="st2" points="26,260.9 104.3,476 100.6,476 26,270.9 		"/>
		<polygon class="st3" points="26,251 107.9,476 104.3,476 26,260.9 		"/>
		<polygon class="st4" points="26,241 111.5,476 107.9,476 26,251 		"/>
		<polygon class="st5" points="26,231 115.2,476 111.5,476 26,241 		"/>
		<polygon class="st6" points="26,221.1 118.8,476 115.2,476 26,231 		"/>
		<polygon class="st7" points="26,211.1 122.4,476 118.8,476 26,221.1 		"/>
		<polygon class="st8" points="26,201.1 126,476 122.4,476 26,211.1 		"/>
		<polygon class="st9" points="26,191.2 129.7,476 126,476 26,201.1 		"/>
		<polygon class="st10" points="26,181.2 133.3,476 129.7,476 26,191.2 		"/>
		<polygon class="st11" points="26,171.2 136.9,476 133.3,476 26,181.2 		"/>
		<polygon class="st12" points="26,161.2 140.6,476 136.9,476 26,171.2 		"/>
		<polygon class="st13" points="26,151.3 144.2,476 140.6,476 26,161.2 		"/>
		<polygon class="st14" points="26,141.3 147.8,476 144.2,476 26,151.3 		"/>
		<polygon class="st15" points="26,131.3 151.4,476 147.8,476 26,141.3 		"/>
		<polygon class="st16" points="26,121.4 155.1,476 151.4,476 26,131.3 		"/>
		<polygon class="st17" points="26,111.4 158.7,476 155.1,476 26,121.4 		"/>
		<polygon class="st18" points="26,101.4 162.3,476 158.7,476 26,111.4 		"/>
		<polygon class="st19" points="26,91.4 166,476 162.3,476 26,101.4 		"/>
		<polygon class="st20" points="26,81.5 169.6,476 166,476 26,91.4 		"/>
		<polygon class="st21" points="26,71.5 173.2,476 169.6,476 26,81.5 		"/>
		<polygon class="st22" points="26,61.5 176.9,476 173.2,476 26,71.5 		"/>
		<polygon class="st23" points="26,58.5 28.2,57.7 180.5,476 176.9,476 26,61.5 		"/>
		<polygon class="st24" points="28.2,57.7 31.4,56.5 184.1,476 180.5,476 		"/>
		<polygon class="st25" points="31.4,56.5 34.6,55.4 187.7,476 184.1,476 		"/>
		<polygon class="st26" points="34.6,55.4 37.8,54.2 191.4,476 187.7,476 		"/>
		<polygon class="st27" points="37.8,54.2 41.1,53 195,476 191.4,476 		"/>
		<polygon class="st28" points="41.1,53 44.3,51.9 198.6,476 195,476 		"/>
		<polygon class="st29" points="44.3,51.9 47.5,50.7 202.3,476 198.6,476 		"/>
		<polygon class="st30" points="47.5,50.7 50.7,49.5 205.9,476 202.3,476 		"/>
		<polygon class="st31" points="50.7,49.5 53.9,48.4 209.5,476 205.9,476 		"/>
		<polygon class="st32" points="53.9,48.4 57.1,47.2 213.1,476 209.5,476 		"/>
		<polygon class="st33" points="57.1,47.2 60.3,46 216.8,476 213.1,476 		"/>
		<polygon class="st34" points="60.3,46 63.5,44.9 220.4,476 216.8,476 		"/>
		<polygon class="st35" points="63.5,44.9 66.7,43.7 224,476 220.4,476 		"/>
		<polygon class="st36" points="66.7,43.7 69.9,42.5 227.7,476 224,476 		"/>
		<polygon class="st37" points="69.9,42.5 73.1,41.4 231.3,476 227.7,476 		"/>
		<polygon class="st38" points="73.1,41.4 76.3,40.2 234.9,476 231.3,476 		"/>
		<polygon class="st39" points="76.3,40.2 79.5,39.1 238.5,476 234.9,476 		"/>
		<polygon class="st40" points="79.5,39.1 82.7,37.9 242.2,476 238.5,476 		"/>
		<polygon class="st41" points="82.7,37.9 85.9,36.7 245.8,476 242.2,476 		"/>
		<polygon class="st42" points="85.9,36.7 89.1,35.6 249.4,476 245.8,476 		"/>
		<polygon class="st43" points="89.1,35.6 92.3,34.4 253.1,476 249.4,476 		"/>
		<polygon class="st44" points="92.3,34.4 95.5,33.2 256.7,476 253.1,476 		"/>
		<polygon class="st45" points="95.5,33.2 98.7,32.1 260.3,476 256.7,476 		"/>
		<polygon class="st46" points="98.7,32.1 101.9,30.9 263.9,476 260.3,476 		"/>
		<polygon class="st47" points="101.9,30.9 105.1,29.7 267.6,476 263.9,476 		"/>
		<polygon class="st48" points="105.1,29.7 108.3,28.6 271.2,476 267.6,476 		"/>
		<polygon class="st49" points="108.3,28.6 111.5,27.4 274.8,476 271.2,476 		"/>
		<polygon class="st50" points="111.5,27.4 114.8,26.2 278.5,476 274.8,476 		"/>
		<polygon class="st51" points="114.8,26.2 115.4,26 118.3,26 282.1,476 278.5,476 		"/>
		<polygon class="st52" points="121.9,26 285.7,476 282.1,476 118.3,26 		"/>
		<polygon class="st53" points="125.6,26 289.3,476 285.7,476 121.9,26 		"/>
		<polygon class="st54" points="129.2,26 293,476 289.3,476 125.6,26 		"/>
		<polygon class="st55" points="132.8,26 296.6,476 293,476 129.2,26 		"/>
		<polygon class="st56" points="136.4,26 300.2,476 296.6,476 132.8,26 		"/>
		<polygon class="st57" points="140.1,26 303.9,476 300.2,476 136.4,26 		"/>
		<polygon class="st58" points="143.7,26 307.5,476 303.9,476 140.1,26 		"/>
		<polygon class="st59" points="147.3,26 311.1,476 307.5,476 143.7,26 		"/>
		<polygon class="st60" points="151,26 314.7,476 311.1,476 147.3,26 		"/>
		<polygon class="st61" points="154.6,26 318.4,476 314.7,476 151,26 		"/>
		<polygon class="st62" points="158.2,26 322,476 318.4,476 154.6,26 		"/>
		<polygon class="st63" points="161.8,26 325.6,476 322,476 158.2,26 		"/>
		<polygon class="st64" points="165.5,26 329.3,476 325.6,476 161.8,26 		"/>
		<polygon class="st65" points="169.1,26 332.9,476 329.3,476 165.5,26 		"/>
		<polygon class="st66" points="172.7,26 336.5,476 332.9,476 169.1,26 		"/>
		<polygon class="st67" points="176.4,26 340.2,476 336.5,476 172.7,26 		"/>
		<polygon class="st68" points="180,26 343.8,476 340.2,476 176.4,26 		"/>
		<polygon class="st69" points="183.6,26 347.4,476 343.8,476 180,26 		"/>
		<polygon class="st70" points="187.3,26 351,476 347.4,476 183.6,26 		"/>
		<polygon class="st71" points="190.9,26 354.7,476 351,476 187.3,26 		"/>
		<polygon class="st72" points="194.5,26 358.3,476 354.7,476 190.9,26 		"/>
		<polygon class="st73" points="198.1,26 361.9,476 358.3,476 194.5,26 		"/>
		<polygon class="st74" points="201.8,26 365.6,476 361.9,476 198.1,26 		"/>
		<polygon class="st75" points="205.4,26 369.2,476 365.6,476 201.8,26 		"/>
		<polygon class="st76" points="209,26 372.8,476 369.2,476 205.4,26 		"/>
		<polygon class="st77" points="212.7,26 376.4,476 372.8,476 209,26 		"/>
		<polygon class="st78" points="216.3,26 380.1,476 376.4,476 212.7,26 		"/>
		<polygon class="st79" points="219.9,26 383.7,476 380.1,476 216.3,26 		"/>
		<polygon class="st80" points="223.5,26 387.2,475.8 386.6,476 383.7,476 219.9,26 		"/>
		<polygon class="st81" points="227.2,26 390.5,474.6 387.2,475.8 223.5,26 		"/>
		<polygon class="st82" points="230.8,26 393.7,473.4 390.5,474.6 227.2,26 		"/>
		<polygon class="st83" points="234.4,26 396.9,472.3 393.7,473.4 230.8,26 		"/>
		<polygon class="st84" points="238.1,26 400.1,471.1 396.9,472.3 234.4,26 		"/>
		<polygon class="st85" points="241.7,26 403.3,469.9 400.1,471.1 238.1,26 		"/>
		<polygon class="st86" points="245.3,26 406.5,468.8 403.3,469.9 241.7,26 		"/>
		<polygon class="st87" points="248.9,26 409.7,467.6 406.5,468.8 245.3,26 		"/>
		<polygon class="st88" points="252.6,26 412.9,466.4 409.7,467.6 248.9,26 		"/>
		<polygon class="st89" points="256.2,26 416.1,465.3 412.9,466.4 252.6,26 		"/>
		<polygon class="st90" points="259.8,26 419.3,464.1 416.1,465.3 256.2,26 		"/>
		<polygon class="st91" points="263.5,26 422.5,462.9 419.3,464.1 259.8,26 		"/>
		<polygon class="st92" points="267.1,26 425.7,461.8 422.5,462.9 263.5,26 		"/>
		<polygon class="st93" points="270.7,26 428.9,460.6 425.7,461.8 267.1,26 		"/>
		<polygon class="st94" points="274.3,26 432.1,459.5 428.9,460.6 270.7,26 		"/>
		<polygon class="st95" points="278,26 435.3,458.3 432.1,459.5 274.3,26 		"/>
		<polygon class="st96" points="281.6,26 438.5,457.1 435.3,458.3 278,26 		"/>
		<polygon class="st97" points="285.2,26 441.7,456 438.5,457.1 281.6,26 		"/>
		<polygon class="st98" points="288.9,26 444.9,454.8 441.7,456 285.2,26 		"/>
		<polygon class="st99" points="292.5,26 448.1,453.6 444.9,454.8 288.9,26 		"/>
		<polygon class="st100" points="296.1,26 451.3,452.5 448.1,453.6 292.5,26 		"/>
		<polygon class="st101" points="299.7,26 454.5,451.3 451.3,452.5 296.1,26 		"/>
		<polygon class="st102" points="303.4,26 457.7,450.1 454.5,451.3 299.7,26 		"/>
		<polygon class="st103" points="307,26 460.9,449 457.7,450.1 303.4,26 		"/>
		<polygon class="st104" points="310.6,26 464.2,447.8 460.9,449 307,26 		"/>
		<polygon class="st105" points="314.3,26 467.4,446.6 464.2,447.8 310.6,26 		"/>
		<polygon class="st106" points="317.9,26 470.6,445.5 467.4,446.6 314.3,26 		"/>
		<polygon class="st107" points="321.5,26 473.8,444.3 470.6,445.5 317.9,26 		"/>
		<polygon class="st108" points="325.1,26 476,440.5 476,443.5 473.8,444.3 321.5,26 		"/>
		<polygon class="st109" points="328.8,26 476,430.5 476,440.5 325.1,26 		"/>
		<polygon class="st110" points="332.4,26 476,420.5 476,430.5 328.8,26 		"/>
		<polygon class="st111" points="336,26 476,410.6 476,420.5 332.4,26 		"/>
		<polygon class="st112" points="339.7,26 476,400.6 476,410.6 336,26 		"/>
		<polygon class="st113" points="343.3,26 476,390.6 476,400.6 339.7,26 		"/>
		<polygon class="st114" points="346.9,26 476,380.6 476,390.6 343.3,26 		"/>
		<polygon class="st115" points="350.5,26 476,370.7 476,380.6 346.9,26 		"/>
		<polygon class="st116" points="354.2,26 476,360.7 476,370.7 350.5,26 		"/>
		<polygon class="st117" points="357.8,26 476,350.7 476,360.7 354.2,26 		"/>
		<polygon class="st118" points="361.4,26 476,340.8 476,350.7 357.8,26 		"/>
		<polygon class="st119" points="365.1,26 476,330.8 476,340.8 361.4,26 		"/>
		<polygon class="st120" points="368.7,26 476,320.8 476,330.8 365.1,26 		"/>
		<polygon class="st121" points="372.3,26 476,310.8 476,320.8 368.7,26 		"/>
		<polygon class="st122" points="376,26 476,300.9 476,310.8 372.3,26 		"/>
		<polygon class="st123" points="379.6,26 476,290.9 476,300.9 376,26 		"/>
		<polygon class="st124" points="383.2,26 476,280.9 476,290.9 379.6,26 		"/>
		<polygon class="st125" points="386.8,26 476,271 476,280.9 383.2,26 		"/>
		<polygon class="st126" points="390.5,26 476,261 476,271 386.8,26 		"/>
		<polygon class="st127" points="394.1,26 476,251 476,261 390.5,26 		"/>
		<polygon class="st128" points="397.7,26 476,241.1 476,251 394.1,26 		"/>
		<polygon class="st129" points="401.4,26 476,231.1 476,241.1 397.7,26 		"/>
		<polygon class="st130" points="405,26 476,221.1 476,231.1 401.4,26 		"/>
		<polygon class="st131" points="408.6,26 476,211.1 476,221.1 405,26 		"/>
		<polygon class="st131" points="476,211.1 408.6,26 476,26 		"/>
	</g>
</g>
<g>
	<path class="st132" d="M310.1,193.3c-1.3-1.3-3.2-1.5-4.7-0.7l0,0L235,226.8l0,0.1c-2.7,1.4-5.2,3.2-7.4,5.5c-12,12-12,31.5,0,43.5
		c12,12,31.5,12,43.5,0c2.6-2.6,4.7-5.6,6.2-8.8l33.6-69.1l0,0C311.6,196.5,311.4,194.6,310.1,193.3z"/>
	<path class="st133" d="M252.1,137.6c-63.3,0-114.5,51.3-114.5,114.5c0,22.7,6.6,43.8,18,61.6l-22.1,36.7l0.1,0.1
		c-1.4,2.1-1.3,4.9,0.4,6.9c1.5,1.8,4,2.5,6.1,1.8l0,0l0,0l42.4-16.1c19.3,14.8,43.4,23.6,69.6,23.6c63.3,0,114.5-51.3,114.5-114.5
		S315.4,137.6,252.1,137.6z M310.8,198l-33.6,69.1c-1.5,3.2-3.5,6.2-6.2,8.8c-12,12-31.5,12-43.5,0c-12-12-12-31.5,0-43.5
		c2.3-2.3,4.8-4.1,7.4-5.5l0-0.1l70.4-34.2l0,0c1.5-0.8,3.4-0.6,4.7,0.7C311.4,194.6,311.6,196.5,310.8,198L310.8,198z"/>
</g>
</svg>
