<?xml version="1.0" encoding="utf-8"?>
<!-- Generator: Adobe Illustrator 19.2.0, SVG Export Plug-In . SVG Version: 6.00 Build 0)  -->
<svg version="1.1" id="Layer_1" xmlns="http://www.w3.org/2000/svg" xmlns:xlink="http://www.w3.org/1999/xlink" x="0px" y="0px"
	 viewBox="0 0 500 500" style="enable-background:new 0 0 500 500;" xml:space="preserve">
<style type="text/css">
	.st4{fill:none;}
	.st5{fill:#FFFFFF;}
</style>
<g>
	<path class="st4" d="M365.9,139.1c-2.4-2.4-6.1-2.9-9-1.4l0-0.1l-135.4,65.8l0,0.1c-5.1,2.7-10,6.2-14.3,10.6
		c-23.1,23.1-23.1,60.6,0,83.7c23.1,23.1,60.5,23.1,83.6,0c5.1-5.1,9-10.8,11.8-16.9l64.6-132.8l0,0
		C368.7,145.2,368.3,141.5,365.9,139.1z"/>
	<path class="st5" d="M254.4,31.9c-121.6,0-220.2,98.6-220.2,220.2c0,43.6,12.7,84.2,34.5,118.4l-42.5,70.6l0.1,0.1
		c-2.6,4-2.5,9.3,0.8,13.2c3,3.5,7.7,4.8,11.8,3.5l0,0l0,0l81.5-30.9c37.1,28.4,83.5,45.4,133.8,45.3
		c121.6,0,220.2-98.6,220.2-220.2S376,31.9,254.4,31.9z M367.2,148.1l-64.6,132.8c-2.8,6.1-6.8,11.8-11.8,16.9
		c-23.1,23.1-60.5,23.1-83.6,0c-23.1-23.1-23.1-60.6,0-83.7c4.3-4.3,9.2-7.9,14.3-10.6l0-0.1l135.4-65.8l0,0.1
		c2.9-1.5,6.5-1.1,9,1.4C368.3,141.5,368.7,145.2,367.2,148.1L367.2,148.1z"/>
</g>
</svg>
